<svg xmlns="http://www.w3.org/2000/svg" viewBox="0 0 48 48.08"><defs><style>.cls-1{fill:#020202;opacity:0.1;}.cls-2{fill:#878787;}.cls-2,.cls-3{stroke:#444343;stroke-miterlimit:10;}.cls-3{fill:#6b6868;}.cls-4{fill:#666;}</style></defs><title>Asset 13</title><g id="Layer_2" data-name="Layer 2"><g id="Layer_1-2" data-name="Layer 1"><rect class="cls-1" y="0.08" width="48" height="48"/><polygon class="cls-2" points="27.16 42.35 23.86 46.5 24.31 6.27 27.57 6.28 27.16 42.35"/><path class="cls-2" d="M24.28,6.51a2.73,2.73,0,0,1,1.56.33.19.19,0,0,0,.07-.12c0-.26-.73-.46-1.63-.47s-1.63.2-1.63.45a.18.18,0,0,0,.06.13A2.73,2.73,0,0,1,24.28,6.51Z"/><path class="cls-2" d="M24.28,6.75a2.66,2.66,0,0,1,1.56.34A.19.19,0,0,0,25.9,7c0-.25-.72-.46-1.62-.47s-1.63.2-1.64.45a.19.19,0,0,0,.07.13A2.71,2.71,0,0,1,24.28,6.75Z"/><path class="cls-2" d="M24.28,6.26a2.8,2.8,0,0,1,1.56.34.15.15,0,0,0,.07-.12c0-.26-.73-.47-1.63-.47s-1.63.2-1.63.45a.19.19,0,0,0,.06.13A2.8,2.8,0,0,1,24.28,6.26Z"/><path class="cls-2" d="M24.28,6a2.84,2.84,0,0,1,1.57.34.18.18,0,0,0,.06-.13c0-.25-.72-.46-1.62-.46s-1.63.19-1.64.45a.17.17,0,0,0,.07.13A2.73,2.73,0,0,1,24.28,6Z"/><path class="cls-2" d="M24.29,5.78a2.74,2.74,0,0,1,1.56.34A.18.18,0,0,0,25.91,6c0-.25-.72-.46-1.62-.47s-1.63.2-1.63.46a.17.17,0,0,0,.06.12A2.79,2.79,0,0,1,24.29,5.78Z"/><path class="cls-2" d="M24.29,5.2a2.68,2.68,0,0,1,1.57.34.19.19,0,0,0,.06-.13c0-.25-.72-.46-1.62-.47s-1.63.2-1.64.45a.16.16,0,0,0,.07.13A2.67,2.67,0,0,1,24.29,5.2Z"/><path class="cls-2" d="M24.29,5.44a2.72,2.72,0,0,1,1.56.34.19.19,0,0,0,.07-.13c0-.25-.73-.46-1.63-.46s-1.63.19-1.63.45a.17.17,0,0,0,.06.12A2.82,2.82,0,0,1,24.29,5.44Z"/><path class="cls-2" d="M24.3,5a2.76,2.76,0,0,1,1.56.33.17.17,0,0,0,.06-.12c0-.26-.72-.46-1.62-.47s-1.63.2-1.63.45a.15.15,0,0,0,.06.13A2.71,2.71,0,0,1,24.3,5Z"/><path class="cls-2" d="M24.3,4.71a2.8,2.8,0,0,1,1.56.34.19.19,0,0,0,.07-.12c0-.26-.73-.47-1.63-.47s-1.63.2-1.63.45a.19.19,0,0,0,.06.13A2.8,2.8,0,0,1,24.3,4.71Z"/><path class="cls-2" d="M24.3,4.68A2.64,2.64,0,0,1,25.86,5a.21.21,0,0,0,.07-.13c0-.25-.73-.46-1.63-.47s-1.63.2-1.63.45a.18.18,0,0,0,.06.13A2.73,2.73,0,0,1,24.3,4.68Z"/><path class="cls-2" d="M24.31,4.1a2.66,2.66,0,0,1,1.56.34.19.19,0,0,0,.06-.13c0-.26-.72-.46-1.62-.47s-1.63.2-1.64.45a.19.19,0,0,0,.07.13A2.71,2.71,0,0,1,24.31,4.1Z"/><path class="cls-2" d="M24.3,4.34a2.76,2.76,0,0,1,1.57.34.19.19,0,0,0,.06-.13c0-.25-.72-.46-1.62-.47s-1.63.2-1.64.46a.17.17,0,0,0,.06.12A2.82,2.82,0,0,1,24.3,4.34Z"/><path class="cls-2" d="M24.31,3.85a2.8,2.8,0,0,1,1.56.34.19.19,0,0,0,.07-.12c0-.26-.73-.47-1.63-.47s-1.63.2-1.63.45a.18.18,0,0,0,.06.13A2.8,2.8,0,0,1,24.31,3.85Z"/><path class="cls-2" d="M24.31,3.61A2.8,2.8,0,0,1,25.87,4a.16.16,0,0,0,.07-.13c0-.25-.73-.46-1.63-.46s-1.63.2-1.63.45a.19.19,0,0,0,.06.13A2.8,2.8,0,0,1,24.31,3.61Z"/><path class="cls-2" d="M24.31,3.37a2.76,2.76,0,0,1,1.57.34.18.18,0,0,0,.06-.13c0-.25-.72-.46-1.62-.46s-1.63.19-1.64.45a.15.15,0,0,0,.07.12A2.75,2.75,0,0,1,24.31,3.37Z"/><path class="cls-2" d="M24.32,2.79a2.72,2.72,0,0,1,1.56.34A.21.21,0,0,0,26,3c0-.25-.73-.46-1.63-.47s-1.63.2-1.63.46a.17.17,0,0,0,.06.12A2.82,2.82,0,0,1,24.32,2.79Z"/><path class="cls-2" d="M24.32,3a2.72,2.72,0,0,1,1.56.34A.19.19,0,0,0,26,3.24c0-.25-.73-.46-1.63-.46s-1.63.19-1.63.45a.19.19,0,0,0,.06.13A2.8,2.8,0,0,1,24.32,3Z"/><path class="cls-2" d="M24.32,2.55a2.68,2.68,0,0,1,1.57.34A.19.19,0,0,0,26,2.76c0-.25-.72-.46-1.62-.47s-1.63.2-1.64.45a.16.16,0,0,0,.07.13A2.67,2.67,0,0,1,24.32,2.55Z"/><path class="cls-2" d="M24.33,2.3a2.83,2.83,0,0,1,1.56.34A.17.17,0,0,0,26,2.52c0-.26-.72-.47-1.62-.47s-1.63.2-1.63.45a.15.15,0,0,0,.06.13A2.77,2.77,0,0,1,24.33,2.3Z"/><path class="cls-2" d="M24.33,2.06a2.8,2.8,0,0,1,1.56.34A.19.19,0,0,0,26,2.27c0-.25-.73-.46-1.63-.46s-1.63.2-1.63.45a.19.19,0,0,0,.06.13A2.8,2.8,0,0,1,24.33,2.06Z"/><path class="cls-2" d="M24.34,1.48a2.74,2.74,0,0,1,1.56.34A.18.18,0,0,0,26,1.69c0-.25-.72-.46-1.62-.46s-1.63.19-1.64.45a.21.21,0,0,0,.07.13A2.77,2.77,0,0,1,24.34,1.48Z"/><path class="cls-2" d="M24.33,1.72a2.78,2.78,0,0,1,1.56.34A.15.15,0,0,0,26,1.94c0-.26-.72-.47-1.62-.47s-1.64.2-1.64.45a.19.19,0,0,0,.06.13A2.8,2.8,0,0,1,24.33,1.72Z"/><path class="cls-2" d="M24.34,1.24a2.72,2.72,0,0,1,1.56.34A.21.21,0,0,0,26,1.45C26,1.2,25.24,1,24.34,1s-1.63.2-1.63.46a.17.17,0,0,0,.06.12A2.82,2.82,0,0,1,24.34,1.24Z"/><path class="cls-2" d="M24.34,1a2.64,2.64,0,0,1,1.56.34A.17.17,0,0,0,26,1.21C26,1,25.24.75,24.34.74s-1.63.2-1.63.45a.18.18,0,0,0,.06.13A2.73,2.73,0,0,1,24.34,1Z"/><path class="cls-2" d="M24.34.75a2.84,2.84,0,0,1,1.57.34A.17.17,0,0,0,26,1C26,.71,25.25.5,24.35.5S22.72.7,22.71,1a.16.16,0,0,0,.07.13A2.73,2.73,0,0,1,24.34.75Z"/><path class="cls-2" d="M24.26,8.33a2.73,2.73,0,0,1,1.56.33.25.25,0,0,0,.07-.12c0-.26-.73-.46-1.63-.47s-1.63.2-1.63.45a.18.18,0,0,0,.06.13A2.73,2.73,0,0,1,24.26,8.33Z"/><path class="cls-2" d="M24.27,7.74a2.83,2.83,0,0,1,1.56.34A.17.17,0,0,0,25.89,8c0-.26-.72-.47-1.62-.47s-1.63.2-1.64.45a.19.19,0,0,0,.07.13A2.75,2.75,0,0,1,24.27,7.74Z"/><path class="cls-2" d="M24.26,8a2.61,2.61,0,0,1,1.56.34.17.17,0,0,0,.07-.13c0-.25-.72-.46-1.62-.47s-1.64.2-1.64.45a.18.18,0,0,0,.06.13A2.73,2.73,0,0,1,24.26,8Z"/><path class="cls-2" d="M24.27,7.5a2.8,2.8,0,0,1,1.56.34.18.18,0,0,0,.06-.13c0-.25-.72-.46-1.62-.46s-1.63.2-1.63.45a.19.19,0,0,0,.06.13A2.8,2.8,0,0,1,24.27,7.5Z"/><path class="cls-2" d="M24.27,7.26a2.72,2.72,0,0,1,1.56.34.19.19,0,0,0,.07-.13c0-.25-.73-.46-1.63-.46s-1.63.19-1.63.45a.17.17,0,0,0,.06.12A2.82,2.82,0,0,1,24.27,7.26Z"/><path class="cls-2" d="M24.27,7a2.61,2.61,0,0,1,1.56.34.17.17,0,0,0,.07-.13c0-.25-.72-.46-1.62-.47s-1.64.2-1.64.45a.18.18,0,0,0,.06.13A2.82,2.82,0,0,1,24.27,7Z"/><polygon class="cls-3" points="20.54 42.32 23.75 46.5 24.2 6.27 20.95 6.25 20.54 42.32"/><polygon class="cls-4" points="16.63 9.74 26.75 6.18 32 6.21 31.97 8.89 26.86 8.86 18.21 12.06 16.63 9.74"/><polygon class="cls-4" points="31.96 9.81 21.93 6.16 16.68 6.13 16.64 8.82 21.75 8.84 30.33 12.12 31.96 9.81"/></g></g></svg>