<svg xmlns="http://www.w3.org/2000/svg" xmlns:xlink="http://www.w3.org/1999/xlink" viewBox="0 0 48 48"><defs><style>.cls-1{opacity:0.1;}.cls-2{fill:#444343;stroke:#444343;stroke-miterlimit:10;}.cls-3,.cls-6{fill:#6b6868;}.cls-3,.cls-4,.cls-5{opacity:0.17;}.cls-4{fill:url(#New_Gradient_Swatch_1);}.cls-5{fill:url(#New_Gradient_Swatch_1-2);}.cls-7{font-size:14.53px;fill:#9e9e9e;font-family:MyriadPro-Regular, Myriad Pro;}</style><linearGradient id="New_Gradient_Swatch_1" x1="25.19" y1="25.91" x2="30.38" y2="25.91" gradientUnits="userSpaceOnUse"><stop offset="0" stop-color="gray"/><stop offset="0.45" stop-color="#ccc"/><stop offset="0.52" stop-color="#b6b6b6"/><stop offset="1" stop-color="gray"/></linearGradient><linearGradient id="New_Gradient_Swatch_1-2" x1="15.5" y1="25.91" x2="20.69" y2="25.91" xlink:href="#New_Gradient_Swatch_1"/></defs><title>Asset 14</title><g id="Layer_2" data-name="Layer 2"><g id="Layer_1-2" data-name="Layer 1"><rect class="cls-1" width="48" height="48"/><path class="cls-2" d="M28.39,1.7H26a7.87,7.87,0,0,1-.17,1.44,9.38,9.38,0,0,1-.26.93,5,5,0,0,1-.73,1.39,3.41,3.41,0,0,1-1.26,1.08,3.67,3.67,0,0,1-1.49-1.4,5.9,5.9,0,0,1-.61-1.4,7.2,7.2,0,0,1-.23-1.05,7.27,7.27,0,0,1-.09-1H18.7l-12.11,17L9,25.91V46.5H38.08q-.33-6.51-.65-13c-.19-3.73-.38-7.47-.56-11.2l3.63-6.05Z"/><rect class="cls-3" x="30.03" y="9.57" width="5.19" height="36.33"/><rect class="cls-3" x="10.66" y="11.99" width="5.19" height="33.91"/><rect class="cls-3" x="20.35" y="7.15" width="5.19" height="38.75"/><rect class="cls-4" x="25.19" y="5.93" width="5.19" height="39.96"/><rect class="cls-5" x="15.5" y="5.93" width="5.19" height="39.96"/><ellipse class="cls-6" cx="22.94" cy="34.69" rx="5.45" ry="3.33"/><text class="cls-7" transform="translate(15.07 21.09)">10</text></g></g></svg>